<svg width="87" height="94" viewBox="0 0 87 94" fill="none" xmlns="http://www.w3.org/2000/svg">
<g id="proze 1" clip-path="url(#clip0_8_63)">
<g id="Layer_1-2">
<g id="Group">
<path id="Vector" d="M77.72 5.93679H68.3179V3.10398H70.3937C72.7137 3.10398 73.6905 2.6729 73.6905 1.56441C73.6905 -0.0983295 75.4 0.0248362 44.3853 0.0248362C22.1621 -0.0367466 15.9347 0.0248362 15.5684 0.271167C15.0189 0.702247 14.8968 1.31808 15.1411 2.11865C15.3853 2.85765 16.1179 3.10398 17.9495 3.10398H19.2926V5.93679H9.64632L0 5.99837L0.0610526 8.83118C0.366316 23.9805 9.03579 35.3734 25.5811 42.3938C27.7179 43.3176 28.2063 43.687 31.6253 47.0125C33.64 49.0448 35.4716 50.9538 35.6547 51.2617C35.8989 51.6312 36.0211 53.4787 36.0211 56.0036V60.1297H39.0737V54.464H48.1095V60.1297H51.1621V56.0036C51.1621 52.9861 51.2842 51.6312 51.5284 51.077C51.7726 50.6459 53.0547 49.2911 54.4589 48.0594C55.8632 46.8278 57.4505 45.2882 58 44.6724C58.7326 43.7486 59.4653 43.256 61.2968 42.517C77.7811 35.8045 86.5726 24.2885 86.9389 8.95434L87 5.99837L77.72 5.93679ZM13.2484 31.3089C10.0737 29.0919 6.41053 23.3647 4.82316 18.1302C4.15158 15.9132 3.29684 11.2329 3.29684 9.63175V9.01593H19.4147V10.6171H19.2926V12.1566H5.98316L6.16632 15.1742C6.47158 20.7167 8.73053 25.9512 12.6989 30.3236C13.6758 31.4321 13.8589 31.74 13.2484 31.3089ZM23.9937 36.5434C23.8105 36.7282 18.7432 32.4174 16.7284 30.3852C12.76 26.3207 10.3789 22.1946 9.58526 17.6375C9.40211 16.4059 9.28 15.359 9.34105 15.1742C9.40211 15.051 11.7221 14.9895 14.4695 14.9895C19.5368 14.9895 19.5979 14.9895 19.72 15.6053C19.7811 15.9748 20.0253 18.0686 20.2695 20.224C20.8189 24.9659 21.8568 29.7693 23.1389 33.5875C23.6274 35.127 24.0547 36.4819 23.9937 36.5434ZM52.9326 45.4729C50.6126 47.5052 49.0253 49.4758 48.72 50.7075C48.5979 51.1591 46.8884 51.3849 43.5916 51.3849H38.6463L38.0968 50.0301C37.7305 49.0448 36.5705 47.7515 33.8232 44.9803C31.0147 42.1475 29.7937 40.6695 28.7558 39.0068C24.8484 32.1711 22.8337 22.6873 22.2232 7.78427L22.04 3.04239H65.2653L65.1432 8.64643C64.5326 27.4908 60.8695 38.5757 52.9326 45.4729ZM72.8968 32.1095C72.4695 32.479 72.4084 32.479 72.7747 31.9863C73.2021 31.4937 73.3853 31.3705 73.3853 31.6168C73.3853 31.6784 73.1411 31.9247 72.8968 32.1095ZM63.3116 36.1739C65.1432 31.2473 66.5474 25.397 67.3411 19.0539L67.8295 14.9895L72.7747 15.051L77.7811 15.1742L77.6589 16.2827C77.3537 19.6082 75.8274 23.5495 73.5074 26.8134C71.4926 29.6462 62.7621 37.7135 63.3116 36.1739ZM83.8253 9.63175C83.8253 10.9866 82.9705 15.9748 82.36 17.9454C80.8947 22.8105 77.659 28.1682 74.4232 30.8778C73.6905 31.4937 73.8126 31.3089 74.8505 30.0772C78.5137 25.7049 80.6505 20.4703 80.8947 15.2358L81.0779 12.2182H68.0126V9.01593H83.8253V9.63175Z" fill="#EEEEEE"/>
<path id="Vector_2" d="M65.3874 72.0149C64.6547 70.5985 63.4337 69.8595 61.6021 69.6748L60.1979 69.4901L60.0758 66.4725C60.0147 63.9476 59.8926 63.2702 59.3432 62.408C58.1221 60.4374 58.3663 60.4374 43.4695 60.4374C31.8695 60.499 30.0379 60.5605 29.2442 60.93C27.5958 61.7306 27.0463 63.0239 26.9853 66.4725L26.8632 69.4901L25.4589 69.6748C23.6274 69.9211 22.4063 70.6601 21.6737 72.0149C21.0632 73.1234 21.0021 73.3082 21.0021 83.5309V94H66.0589V83.5309C66.0589 73.2466 66.0589 73.0619 65.3874 72.0149ZM29.9768 67.0267C29.9768 65.6103 30.0379 64.3171 30.16 64.0708C30.2821 63.7013 31.7474 63.6397 43.3474 63.6397C53.1158 63.5781 56.4737 63.7013 56.7179 63.9476C56.9621 64.1939 57.0842 65.2408 57.0842 66.9036V69.5516H29.9768V67.0267ZM63.0063 90.9209H24.1158V82.1145C24.1158 74.0472 24.1158 73.3082 24.6042 73.0619C25.2758 72.6308 61.6632 72.5692 62.4568 73.0003C62.9453 73.3082 63.0063 73.6777 63.0063 82.1145V90.9209Z" fill="#EEEEEE"/>
<path id="Vector_3" d="M59.4652 76.141C59.0989 75.8331 55.4968 75.7715 43.5305 75.7715C28.3895 75.8331 28.0231 75.8331 27.4737 76.3873C26.9852 76.88 26.9242 77.3111 26.9242 80.2054C26.9242 83.0998 26.9852 83.5309 27.4737 84.0852L28.0231 84.7626L43.2252 84.8242C55.0695 84.8857 58.5495 84.8242 59.0989 84.5162C59.8316 84.1467 59.8316 84.0852 59.8926 80.3286C59.9537 77.0031 59.8926 76.4489 59.4652 76.141ZM57.0842 81.745H29.9768V78.6659H57.0842V81.745Z" fill="#EEEEEE"/>
</g>
</g>
</g>
<defs>
<clipPath id="clip0_8_63">
<rect width="87" height="94" fill="white"/>
</clipPath>
</defs>
</svg>
